<?xml version="1.0" encoding="UTF-8"?>
<svg id="Layer_2" data-name="Layer 2" xmlns="http://www.w3.org/2000/svg" viewBox="0 0 785.51 123.55">
  <defs>
    <style>
      .cls-1 {
        fill-rule: evenodd;
      }

      .cls-1, .cls-2, .cls-3 {
        stroke-width: 0px;
      }

      .cls-1, .cls-3 {
        fill: #f0a;
      }
    </style>
  </defs>
  <g id="Layer_1-2" data-name="Layer 1">
    <g>
      <path class="cls-1" d="M61.77,123.55c34.11,0,61.77-27.66,61.77-61.77S95.89,0,61.77,0,0,27.66,0,61.77s27.66,61.77,61.77,61.77ZM37.87,35.51l23.12,23.12v-21.99c0-.17,0-.44.09-.61.09-.17.17-.35.35-.52.17-.17.35-.26.52-.35.18-.09.44-.09.61-.09h26.18c.18,0,.44.09.61.09.17.09.35.17.52.35.18.17.26.35.35.52.09.17.09.44.09.61v52c0,.26,0,.44-.09.61-.09.18-.17.35-.35.52-.17.17-.35.26-.52.35-.17.09-.44.09-.61.09-.26,0-.44,0-.7-.09-.17-.09-.44-.17-.52-.35l-23.12-23.12v21.99c0,.17,0,.44-.09.61-.09.18-.17.35-.35.52s-.35.26-.52.35c-.17.09-.44.09-.61.09h-26.18c-.17,0-.44-.09-.61-.09-.17-.09-.35-.17-.52-.35-.17-.17-.26-.35-.35-.52-.09-.17-.09-.44-.09-.61v-26c0-.17,0-.26.09-.44v-25.56c0-.35.09-.61.26-.96.17-.26.44-.52.79-.61.26-.09.61-.17.96-.09.17.09.52.26.7.52Z"/>
      <path class="cls-3" d="M230.78,10.56h14.31v98.94h-14.31l-60.38-80.1v80.1h-14.31V10.56h17.54l57.15,74.42V10.56Z"/>
      <path class="cls-3" d="M257.82,109.5V10.56h73.29v14.05h-58.89v26.87h54.45v14.05h-54.53v30.01h58.89v14.05h-73.2v-.09Z"/>
      <path class="cls-3" d="M334.08,60.03c0-28.18,20.68-51.56,51.39-51.56s51.57,23.3,51.57,51.56-20.68,51.39-51.57,51.39-51.39-23.04-51.39-51.39ZM422.55,60.03c0-20.5-14.66-37.52-37.08-37.52s-36.91,17.01-36.91,37.52,14.66,37.52,36.91,37.52,37.08-17.1,37.08-37.52Z"/>
      <path class="cls-3" d="M520.71,10.56h14.31v98.94h-14.31l-60.38-80.1v80.1h-14.31V10.56h17.54l57.15,74.42V10.56Z"/>
      <g>
        <rect class="cls-2" x="579.36" y="10.56" width="14.2" height="98.94"/>
        <path class="cls-2" d="M636.07,10.56l-35.99,98.94h14.99l9.99-28.09h35.11l9.99,28.09h14.99l-35.99-98.94h-13.09ZM655.43,68.07h-25.62l12.81-36.02,12.81,36.02Z"/>
        <polygon class="cls-2" points="770.93 10.56 738.59 88.23 706.24 10.56 691.67 10.56 691.67 109.5 705.37 109.5 705.37 43.81 732.83 109.5 744.35 109.5 771.81 43.81 771.81 109.5 785.51 109.5 785.51 10.56 770.93 10.56"/>
      </g>
    </g>
  </g>
</svg>